<?xml version="1.0" encoding="UTF-8" standalone="no"?>
<!-- Created with Inkscape (http://www.inkscape.org/) -->

<svg
   xmlns:dc="http://purl.org/dc/elements/1.1/"
   xmlns:cc="http://creativecommons.org/ns#"
   xmlns:rdf="http://www.w3.org/1999/02/22-rdf-syntax-ns#"
   xmlns:svg="http://www.w3.org/2000/svg"
   xmlns="http://www.w3.org/2000/svg"
   xmlns:sodipodi="http://sodipodi.sourceforge.net/DTD/sodipodi-0.dtd"
   xmlns:inkscape="http://www.inkscape.org/namespaces/inkscape"
   version="1.1"
   id="svg2"
   xml:space="preserve"
   width="288"
   height="182.98267"
   viewBox="0 0 288 182.98267"
   sodipodi:docname="The Long Con Sunset.svg"
   inkscape:version="0.92.3 (2405546, 2018-03-11)"
   inkscape:export-filename="/home/aweber/Downloads/FINAL/The Long Con Sunset.svg.png"
   inkscape:export-xdpi="96"
   inkscape:export-ydpi="96"><metadata
     id="metadata8"><rdf:RDF><cc:Work
         rdf:about=""><dc:format>image/svg+xml</dc:format><dc:type
           rdf:resource="http://purl.org/dc/dcmitype/StillImage" /><dc:title></dc:title></cc:Work></rdf:RDF></metadata><defs
     id="defs6"><clipPath
       clipPathUnits="userSpaceOnUse"
       id="clipPath42"><path
         d="M 0,137.237 H 216 V 0 H 0 Z"
         id="path40"
         inkscape:connector-curvature="0" /></clipPath></defs><sodipodi:namedview
     pagecolor="#ffffff"
     bordercolor="#666666"
     borderopacity="1"
     objecttolerance="10"
     gridtolerance="10"
     guidetolerance="10"
     inkscape:pageopacity="0"
     inkscape:pageshadow="2"
     inkscape:window-width="1207"
     inkscape:window-height="765"
     id="namedview4"
     showgrid="false"
     inkscape:zoom="1.2897397"
     inkscape:cx="144"
     inkscape:cy="91.491333"
     inkscape:window-x="0"
     inkscape:window-y="0"
     inkscape:window-maximized="0"
     inkscape:current-layer="g10" /><g
     id="g10"
     inkscape:groupmode="layer"
     inkscape:label="The Long Con Sunset"
     transform="matrix(1.3333333,0,0,-1.3333333,0,182.98267)"><g
       id="g12"
       transform="translate(154.8981,35.9901)"><path
         d="M 0,0 -0.91,-6.732 H 61.102 V 0 Z"
         style="fill:#000000;fill-opacity:1;fill-rule:nonzero;stroke:none"
         id="path14"
         inkscape:connector-curvature="0" /></g><g
       id="g16"
       transform="translate(0.0063,35.9901)"><path
         d="M 0,0 V -6.732 H 62.012 L 61.102,0 Z"
         style="fill:#000000;fill-opacity:1;fill-rule:nonzero;stroke:none"
         id="path18"
         inkscape:connector-curvature="0" /></g><g
       id="g20"
       transform="translate(0,19.9314)"><path
         d="m 0,0 v -5.167 h 5.256 v -14.412 h 5.932 v 14.412 h 5.227 V 0 Z"
         style="fill:#000000;fill-opacity:1;fill-rule:nonzero;stroke:none"
         id="path22"
         inkscape:connector-curvature="0" /></g><g
       id="g24"
       transform="translate(31.4775,19.9314)"><path
         d="M 0,0 V -6.928 H -7.018 V 0 h -5.931 v -19.579 h 5.931 v 7.485 H 0 v -7.485 H 5.932 V 0 Z"
         style="fill:#000000;fill-opacity:1;fill-rule:nonzero;stroke:none"
         id="path26"
         inkscape:connector-curvature="0" /></g><g
       id="g28"
       transform="translate(39.8457,19.9314)"><path
         d="m 0,0 v -19.579 h 14.859 v 5.166 H 5.932 v 2.142 h 8.721 v 5.167 H 5.932 v 1.937 h 8.927 V 0 Z"
         style="fill:#000000;fill-opacity:1;fill-rule:nonzero;stroke:none"
         id="path30"
         inkscape:connector-curvature="0" /></g><g
       id="g32"
       transform="translate(64.8342,19.9314)"><path
         d="m 0,0 v -19.579 h 13.361 v 5.166 H 5.931 V 0 Z"
         style="fill:#000000;fill-opacity:1;fill-rule:nonzero;stroke:none"
         id="path34"
         inkscape:connector-curvature="0" /></g><g
       id="g36"><g
         id="g38"
         clip-path="url(#clipPath42)"><g
           id="g44"
           transform="translate(90.3808,5.2243)"><path
             d="m 0,0 c -2.849,0 -4.699,2.173 -4.699,4.902 0,2.73 1.85,4.903 4.699,4.903 2.848,0 4.698,-2.173 4.698,-4.903 C 4.698,2.173 2.848,0 0,0 m 0,15.029 c -6.049,0 -10.718,-4.109 -10.718,-10.127 0,-6.017 4.669,-10.127 10.718,-10.127 6.049,0 10.718,4.11 10.718,10.127 0,6.018 -4.669,10.127 -10.718,10.127"
             style="fill:#000000;fill-opacity:1;fill-rule:nonzero;stroke:none"
             id="path46"
             inkscape:connector-curvature="0" /></g><g
           id="g48"
           transform="translate(115.8388,10.655)"><path
             d="m 0,0 -6.812,9.276 h -6.109 v -19.579 h 5.932 v 9.921 l 7.224,-9.921 H 5.932 V 9.276 H 0 Z"
             style="fill:#000000;fill-opacity:1;fill-rule:nonzero;stroke:none"
             id="path50"
             inkscape:connector-curvature="0" /></g><g
           id="g52"
           transform="translate(134.0732,6.8103)"><path
             d="m 0,0 h 3.642 v -0.705 c -0.617,-0.47 -1.939,-0.881 -3.054,-0.881 -2.849,0 -4.758,2.173 -4.758,4.902 0,2.73 1.909,4.903 4.758,4.903 1.762,0 3.054,-1.234 3.611,-2.437 l 4.992,2.554 c -1.233,2.524 -3.934,5.107 -8.603,5.107 -5.933,0 -10.777,-3.844 -10.777,-10.127 0,-6.252 4.844,-10.127 10.777,-10.127 3.847,0 6.783,1.556 8.956,3.963 V 5.166 H 0 Z"
             style="fill:#000000;fill-opacity:1;fill-rule:nonzero;stroke:none"
             id="path54"
             inkscape:connector-curvature="0" /></g><g
           id="g56"
           transform="translate(163.4657,15.029)"><path
             d="M 0,0 C 1.763,0 3.289,-1.321 3.788,-2.848 L 8.897,-0.47 C 7.724,2.23 5.14,5.225 0,5.225 c -6.137,0 -10.776,-4.08 -10.776,-10.127 0,-6.018 4.639,-10.127 10.776,-10.127 5.14,0 7.753,3.111 8.897,5.723 L 3.788,-6.957 C 3.289,-8.483 1.763,-9.805 0,-9.805 c -2.848,0 -4.757,2.173 -4.757,4.903 C -4.757,-2.173 -2.848,0 0,0"
             style="fill:#000000;fill-opacity:1;fill-rule:nonzero;stroke:none"
             id="path58"
             inkscape:connector-curvature="0" /></g><g
           id="g60"
           transform="translate(184.6073,5.2243)"><path
             d="m 0,0 c -2.848,0 -4.698,2.173 -4.698,4.902 0,2.73 1.85,4.903 4.698,4.903 2.849,0 4.699,-2.173 4.699,-4.903 C 4.699,2.173 2.849,0 0,0 m 0,15.029 c -6.049,0 -10.718,-4.109 -10.718,-10.127 0,-6.017 4.669,-10.127 10.718,-10.127 6.05,0 10.719,4.11 10.719,10.127 C 10.719,10.92 6.05,15.029 0,15.029"
             style="fill:#000000;fill-opacity:1;fill-rule:nonzero;stroke:none"
             id="path62"
             inkscape:connector-curvature="0" /></g><g
           id="g64"
           transform="translate(210.0663,10.655)"><path
             d="m 0,0 -6.813,9.276 h -6.108 v -19.579 h 5.932 v 9.921 l 7.223,-9.921 H 5.932 V 9.276 H 0 Z"
             style="fill:#000000;fill-opacity:1;fill-rule:nonzero;stroke:none"
             id="path66"
             inkscape:connector-curvature="0" /></g><g
           id="g68"
           transform="translate(66.4545,120.5788)"><path
             d="M 0,0 2.341,-4.642 2.974,-4.323 0.633,0.319 Z"
             style="fill:#000000;fill-opacity:1;fill-rule:nonzero;stroke:none"
             id="path70"
             inkscape:connector-curvature="0" /></g><g
           id="g72"
           transform="translate(58.7743,116.1882)"><path
             d="M 0,0 2.783,-4.401 3.381,-4.022 0.599,0.379 Z"
             style="fill:#000000;fill-opacity:1;fill-rule:nonzero;stroke:none"
             id="path74"
             inkscape:connector-curvature="0" /></g><g
           id="g76"
           transform="translate(66.9594,114.9729)"><path
             d="m 0,0 -2.49,4.564 -0.622,-0.339 2.49,-4.564 z"
             style="fill:#000000;fill-opacity:1;fill-rule:nonzero;stroke:none"
             id="path78"
             inkscape:connector-curvature="0" /></g><g
           id="g80"
           transform="translate(74.4818,118.5852)"><path
             d="M 0,0 -2.035,4.778 -2.688,4.5 -0.652,-0.278 Z"
             style="fill:#000000;fill-opacity:1;fill-rule:nonzero;stroke:none"
             id="path82"
             inkscape:connector-curvature="0" /></g><g
           id="g84"
           transform="translate(51.5536,111.0769)"><path
             d="M 0,0 3.199,-4.118 3.759,-3.683 0.56,0.435 Z"
             style="fill:#000000;fill-opacity:1;fill-rule:nonzero;stroke:none"
             id="path86"
             inkscape:connector-curvature="0" /></g><g
           id="g88"
           transform="translate(53.1366,105.6604)"><path
             d="m 0,0 -3.33,4.013 -0.545,-0.452 3.33,-4.014 z"
             style="fill:#000000;fill-opacity:1;fill-rule:nonzero;stroke:none"
             id="path90"
             inkscape:connector-curvature="0" /></g><g
           id="g92"
           transform="translate(77.0634,119.6238)"><path
             d="m 0,0 -1.88,4.841 -0.661,-0.257 1.88,-4.841 z"
             style="fill:#000000;fill-opacity:1;fill-rule:nonzero;stroke:none"
             id="path94"
             inkscape:connector-curvature="0" /></g><g
           id="g96"
           transform="translate(59.8232,110.6501)"><path
             d="M 0,0 -2.924,4.31 -3.51,3.912 -0.586,-0.397 Z"
             style="fill:#000000;fill-opacity:1;fill-rule:nonzero;stroke:none"
             id="path98"
             inkscape:connector-curvature="0" /></g><g
           id="g100"
           transform="translate(101.4115,125.0876)"><path
             d="M 0,0 -0.419,5.193 -1.125,5.136 -0.706,-0.057 Z"
             style="fill:#000000;fill-opacity:1;fill-rule:nonzero;stroke:none"
             id="path102"
             inkscape:connector-curvature="0" /></g><g
           id="g104"
           transform="translate(106.9696,125.3259)"><path
             d="M 0,0 -0.083,5.216 -0.792,5.205 -0.708,-0.011 Z"
             style="fill:#000000;fill-opacity:1;fill-rule:nonzero;stroke:none"
             id="path106"
             inkscape:connector-curvature="0" /></g><g
           id="g108"
           transform="translate(98.6415,124.8303)"><path
             d="M 0,0 -0.586,5.177 -1.29,5.098 -0.704,-0.08 Z"
             style="fill:#000000;fill-opacity:1;fill-rule:nonzero;stroke:none"
             id="path110"
             inkscape:connector-curvature="0" /></g><g
           id="g112"
           transform="translate(84.9897,122.2336)"><path
             d="M 0,0 -1.405,5 -2.087,4.808 -0.682,-0.191 Z"
             style="fill:#000000;fill-opacity:1;fill-rule:nonzero;stroke:none"
             id="path114"
             inkscape:connector-curvature="0" /></g><g
           id="g116"
           transform="translate(93.1313,124.0618)"><path
             d="M 0,0 -0.916,5.116 -1.614,4.991 -0.697,-0.125 Z"
             style="fill:#000000;fill-opacity:1;fill-rule:nonzero;stroke:none"
             id="path118"
             inkscape:connector-curvature="0" /></g><g
           id="g120"
           transform="translate(82.3197,121.4494)"><path
             d="M 0,0 -1.564,4.951 -2.24,4.738 -0.676,-0.214 Z"
             style="fill:#000000;fill-opacity:1;fill-rule:nonzero;stroke:none"
             id="path122"
             inkscape:connector-curvature="0" /></g><g
           id="g124"
           transform="translate(48.9594,101.9866)"><path
             d="M 0,0 -3.584,3.792 -4.099,3.306 -0.515,-0.487 Z"
             style="fill:#000000;fill-opacity:1;fill-rule:nonzero;stroke:none"
             id="path126"
             inkscape:connector-curvature="0" /></g><g
           id="g128"
           transform="translate(90.3988,123.5368)"><path
             d="M 0,0 -1.081,5.086 -1.774,4.938 -0.693,-0.147 Z"
             style="fill:#000000;fill-opacity:1;fill-rule:nonzero;stroke:none"
             id="path130"
             inkscape:connector-curvature="0" /></g><g
           id="g132"
           transform="translate(24.0785,59.3337)"><path
             d="M 0,0 -5.061,1.204 -5.225,0.515 -0.164,-0.689 Z"
             style="fill:#000000;fill-opacity:1;fill-rule:nonzero;stroke:none"
             id="path134"
             inkscape:connector-curvature="0" /></g><g
           id="g136"
           transform="translate(109.8358,130.531)"><path
             d="m 0,0 -0.708,0.011 -0.085,-5.216 0.708,-0.011 z"
             style="fill:#000000;fill-opacity:1;fill-rule:nonzero;stroke:none"
             id="path138"
             inkscape:connector-curvature="0" /></g><g
           id="g140"
           transform="translate(20.3822,65.5456)"><path
             d="M 0,0 4.967,-1.525 5.175,-0.849 0.208,0.678 Z"
             style="fill:#000000;fill-opacity:1;fill-rule:nonzero;stroke:none"
             id="path142"
             inkscape:connector-curvature="0" /></g><g
           id="g144"
           transform="translate(26.4281,67.3401)"><path
             d="M 0,0 -4.916,1.686 -5.145,1.015 -0.23,-0.67 Z"
             style="fill:#000000;fill-opacity:1;fill-rule:nonzero;stroke:none"
             id="path146"
             inkscape:connector-curvature="0" /></g><g
           id="g148"
           transform="translate(16.9135,48.2175)"><path
             d="M 0,0 5.183,-0.545 5.257,0.159 0.074,0.704 Z"
             style="fill:#000000;fill-opacity:1;fill-rule:nonzero;stroke:none"
             id="path150"
             inkscape:connector-curvature="0" /></g><g
           id="g152"
           transform="translate(18.2284,56.9656)"><path
             d="M 0,0 5.096,-1.041 5.238,-0.347 0.142,0.694 Z"
             style="fill:#000000;fill-opacity:1;fill-rule:nonzero;stroke:none"
             id="path154"
             inkscape:connector-curvature="0" /></g><g
           id="g156"
           transform="translate(22.518,51.1374)"><path
             d="M 0,0 -5.164,0.711 -5.26,0.01 -0.097,-0.702 Z"
             style="fill:#000000;fill-opacity:1;fill-rule:nonzero;stroke:none"
             id="path158"
             inkscape:connector-curvature="0" /></g><g
           id="g160"
           transform="translate(23.3539,73.8786)"><path
             d="M 0,0 4.797,-1.999 5.07,-1.345 0.272,0.654 Z"
             style="fill:#000000;fill-opacity:1;fill-rule:nonzero;stroke:none"
             id="path162"
             inkscape:connector-curvature="0" /></g><g
           id="g164"
           transform="translate(36.8627,96.6272)"><path
             d="m 0,0 4.041,-3.299 0.448,0.548 -4.04,3.299 z"
             style="fill:#000000;fill-opacity:1;fill-rule:nonzero;stroke:none"
             id="path166"
             inkscape:connector-curvature="0" /></g><g
           id="g168"
           transform="translate(43.1547,95.9949)"><path
             d="M 0,0 -3.932,3.428 -4.398,2.894 -0.466,-0.534 Z"
             style="fill:#000000;fill-opacity:1;fill-rule:nonzero;stroke:none"
             id="path170"
             inkscape:connector-curvature="0" /></g><g
           id="g172"
           transform="translate(29.5458,75.0803)"><path
             d="M 0,0 -4.731,2.152 -5.024,1.507 -0.293,-0.645 Z"
             style="fill:#000000;fill-opacity:1;fill-rule:nonzero;stroke:none"
             id="path174"
             inkscape:connector-curvature="0" /></g><g
           id="g176"
           transform="translate(37.9516,89.4734)"><path
             d="m 0,0 -4.24,3.029 -0.412,-0.576 4.24,-3.03 z"
             style="fill:#000000;fill-opacity:1;fill-rule:nonzero;stroke:none"
             id="path178"
             inkscape:connector-curvature="0" /></g><g
           id="g180"
           transform="translate(27.1156,81.8855)"><path
             d="M 0,0 4.587,-2.455 4.922,-1.831 0.334,0.625 Z"
             style="fill:#000000;fill-opacity:1;fill-rule:nonzero;stroke:none"
             id="path182"
             inkscape:connector-curvature="0" /></g><g
           id="g184"
           transform="translate(31.6327,89.4919)"><path
             d="m 0,0 4.335,-2.891 0.394,0.59 -4.335,2.89 z"
             style="fill:#000000;fill-opacity:1;fill-rule:nonzero;stroke:none"
             id="path186"
             inkscape:connector-curvature="0" /></g><g
           id="g188"
           transform="translate(33.4003,82.4807)"><path
             d="M 0,0 -4.506,2.602 -4.861,1.988 -0.354,-0.614 Z"
             style="fill:#000000;fill-opacity:1;fill-rule:nonzero;stroke:none"
             id="path190"
             inkscape:connector-curvature="0" /></g><g
           id="g192"
           transform="translate(42.7577,103.2239)"><path
             d="M 0,0 3.704,-3.675 4.203,-3.172 0.499,0.503 Z"
             style="fill:#000000;fill-opacity:1;fill-rule:nonzero;stroke:none"
             id="path194"
             inkscape:connector-curvature="0" /></g><g
           id="g196"
           transform="translate(182.6171,82.4778)"><path
             d="M 0,0 0.354,-0.614 4.853,1.983 4.498,2.597 Z"
             style="fill:#000000;fill-opacity:1;fill-rule:nonzero;stroke:none"
             id="path198"
             inkscape:connector-curvature="0" /></g><g
           id="g200"
           transform="translate(188.8925,81.8772)"><path
             d="m 0,0 -0.334,0.625 -4.578,-2.45 0.334,-0.625 z"
             style="fill:#000000;fill-opacity:1;fill-rule:nonzero;stroke:none"
             id="path202"
             inkscape:connector-curvature="0" /></g><g
           id="g204"
           transform="translate(21.7548,42.8298)"><path
             d="m 0,0 -5.218,0.211 -0.028,-0.709 5.218,-0.21 z"
             style="fill:#000000;fill-opacity:1;fill-rule:nonzero;stroke:none"
             id="path206"
             inkscape:connector-curvature="0" /></g><g
           id="g208"
           transform="translate(192.6532,73.8694)"><path
             d="M 0,0 -0.271,0.654 -5.06,-1.34 -4.787,-1.994 Z"
             style="fill:#000000;fill-opacity:1;fill-rule:nonzero;stroke:none"
             id="path210"
             inkscape:connector-curvature="0" /></g><g
           id="g212"
           transform="translate(186.4716,75.0759)"><path
             d="M 0,0 0.293,-0.645 5.015,1.503 4.721,2.148 Z"
             style="fill:#000000;fill-opacity:1;fill-rule:nonzero;stroke:none"
             id="path214"
             inkscape:connector-curvature="0" /></g><g
           id="g216"
           transform="translate(172.8622,95.9939)"><path
             d="M 0,0 0.465,-0.534 4.392,2.887 3.926,3.422 Z"
             style="fill:#000000;fill-opacity:1;fill-rule:nonzero;stroke:none"
             id="path218"
             inkscape:connector-curvature="0" /></g><g
           id="g220"
           transform="translate(184.3769,89.4836)"><path
             d="m 0,0 -0.394,0.59 -4.327,-2.885 0.393,-0.59 z"
             style="fill:#000000;fill-opacity:1;fill-rule:nonzero;stroke:none"
             id="path222"
             inkscape:connector-curvature="0" /></g><g
           id="g224"
           transform="translate(179.1474,96.6194)"><path
             d="m 0,0 -0.448,0.549 -4.034,-3.293 0.448,-0.549 z"
             style="fill:#000000;fill-opacity:1;fill-rule:nonzero;stroke:none"
             id="path226"
             inkscape:connector-curvature="0" /></g><g
           id="g228"
           transform="translate(178.0653,89.4714)"><path
             d="M 0,0 0.412,-0.577 4.645,2.447 4.233,3.023 Z"
             style="fill:#000000;fill-opacity:1;fill-rule:nonzero;stroke:none"
             id="path230"
             inkscape:connector-curvature="0" /></g><g
           id="g232"
           transform="translate(189.5898,67.3352)"><path
             d="M 0,0 0.229,-0.67 5.121,1.006 4.892,1.677 Z"
             style="fill:#000000;fill-opacity:1;fill-rule:nonzero;stroke:none"
             id="path234"
             inkscape:connector-curvature="0" /></g><g
           id="g236"
           transform="translate(199.5556,39.3728)"><path
             d="M 0,0 -0.006,0.709 -5.217,0.667 -5.21,-0.041 Z"
             style="fill:#000000;fill-opacity:1;fill-rule:nonzero;stroke:none"
             id="path238"
             inkscape:connector-curvature="0" /></g><g
           id="g240"
           transform="translate(193.4989,51.1296)"><path
             d="M 0,0 0.097,-0.702 5.248,0.008 5.152,0.71 Z"
             style="fill:#000000;fill-opacity:1;fill-rule:nonzero;stroke:none"
             id="path242"
             inkscape:connector-curvature="0" /></g><g
           id="g244"
           transform="translate(194.2607,42.821)"><path
             d="M 0,0 0.029,-0.708 5.235,-0.499 5.207,0.21 Z"
             style="fill:#000000;fill-opacity:1;fill-rule:nonzero;stroke:none"
             id="path246"
             inkscape:connector-curvature="0" /></g><g
           id="g248"
           transform="translate(195.6249,65.5368)"><path
             d="m 0,0 -0.208,0.678 -4.957,-1.524 0.208,-0.676 z"
             style="fill:#000000;fill-opacity:1;fill-rule:nonzero;stroke:none"
             id="path250"
             inkscape:connector-curvature="0" /></g><g
           id="g252"
           transform="translate(191.9394,59.3269)"><path
             d="M 0,0 0.163,-0.689 5.212,0.512 5.049,1.201 Z"
             style="fill:#000000;fill-opacity:1;fill-rule:nonzero;stroke:none"
             id="path254"
             inkscape:connector-curvature="0" /></g><g
           id="g256"
           transform="translate(197.7773,56.9558)"><path
             d="m 0,0 -0.142,0.694 -5.085,-1.037 0.142,-0.694 z"
             style="fill:#000000;fill-opacity:1;fill-rule:nonzero;stroke:none"
             id="path258"
             inkscape:connector-curvature="0" /></g><g
           id="g260"
           transform="translate(199.0917,48.2077)"><path
             d="M 0,0 -0.074,0.705 -5.246,0.161 -5.172,-0.544 Z"
             style="fill:#000000;fill-opacity:1;fill-rule:nonzero;stroke:none"
             id="path262"
             inkscape:connector-curvature="0" /></g><g
           id="g264"
           transform="translate(131.0243,122.2341)"><path
             d="M 0,0 0.682,-0.191 2.086,4.805 1.404,4.997 Z"
             style="fill:#000000;fill-opacity:1;fill-rule:nonzero;stroke:none"
             id="path266"
             inkscape:connector-curvature="0" /></g><g
           id="g268"
           transform="translate(135.9335,126.1843)"><path
             d="m 0,0 -0.676,0.213 -1.563,-4.947 0.676,-0.214 z"
             style="fill:#000000;fill-opacity:1;fill-rule:nonzero;stroke:none"
             id="path270"
             inkscape:connector-curvature="0" /></g><g
           id="g272"
           transform="translate(138.9501,119.6243)"><path
             d="M 0,0 0.661,-0.257 2.541,4.581 1.88,4.837 Z"
             style="fill:#000000;fill-opacity:1;fill-rule:nonzero;stroke:none"
             id="path274"
             inkscape:connector-curvature="0" /></g><g
           id="g276"
           transform="translate(127.3886,128.4729)"><path
             d="m 0,0 -0.693,0.147 -1.081,-5.083 0.693,-0.147 z"
             style="fill:#000000;fill-opacity:1;fill-rule:nonzero;stroke:none"
             id="path278"
             inkscape:connector-curvature="0" /></g><g
           id="g280"
           transform="translate(118.662,129.9265)"><path
             d="m 0,0 -0.704,0.08 -0.587,-5.176 0.704,-0.08 z"
             style="fill:#000000;fill-opacity:1;fill-rule:nonzero;stroke:none"
             id="path282"
             inkscape:connector-curvature="0" /></g><g
           id="g284"
           transform="translate(144.2177,123.0813)"><path
             d="m 0,0 -0.651,0.278 -2.035,-4.773 0.653,-0.278 z"
             style="fill:#000000;fill-opacity:1;fill-rule:nonzero;stroke:none"
             id="path286"
             inkscape:connector-curvature="0" /></g><g
           id="g288"
           transform="translate(115.7265,130.2229)"><path
             d="m 0,0 -0.706,0.057 -0.419,-5.192 0.706,-0.057 z"
             style="fill:#000000;fill-opacity:1;fill-rule:nonzero;stroke:none"
             id="path290"
             inkscape:connector-curvature="0" /></g><g
           id="g292"
           transform="translate(124.496,129.0515)"><path
             d="M 0,0 -0.698,0.125 -1.614,-4.99 -0.916,-5.114 Z"
             style="fill:#000000;fill-opacity:1;fill-rule:nonzero;stroke:none"
             id="path294"
             inkscape:connector-curvature="0" /></g><g
           id="g296"
           transform="translate(153.8593,112.1662)"><path
             d="M 0,0 0.599,-0.378 3.378,4.017 2.779,4.396 Z"
             style="fill:#000000;fill-opacity:1;fill-rule:nonzero;stroke:none"
             id="path298"
             inkscape:connector-curvature="0" /></g><g
           id="g300"
           transform="translate(162.8788,105.6604)"><path
             d="M 0,0 0.545,-0.453 3.872,3.554 3.326,4.007 Z"
             style="fill:#000000;fill-opacity:1;fill-rule:nonzero;stroke:none"
             id="path302"
             inkscape:connector-curvature="0" /></g><g
           id="g304"
           transform="translate(160.703,107.3943)"><path
             d="M 0,0 0.56,-0.435 3.755,3.676 3.195,4.111 Z"
             style="fill:#000000;fill-opacity:1;fill-rule:nonzero;stroke:none"
             id="path306"
             inkscape:connector-curvature="0" /></g><g
           id="g308"
           transform="translate(167.0565,101.9861)"><path
             d="M 0,0 0.516,-0.487 4.094,3.299 3.579,3.786 Z"
             style="fill:#000000;fill-opacity:1;fill-rule:nonzero;stroke:none"
             id="path310"
             inkscape:connector-curvature="0" /></g><g
           id="g312"
           transform="translate(156.7782,110.2527)"><path
             d="M 0,0 2.92,4.304 2.334,4.702 -0.586,0.398 Z"
             style="fill:#000000;fill-opacity:1;fill-rule:nonzero;stroke:none"
             id="path314"
             inkscape:connector-curvature="0" /></g><g
           id="g316"
           transform="translate(146.5858,116.2571)"><path
             d="M 0,0 0.633,-0.319 2.973,4.318 2.34,4.637 Z"
             style="fill:#000000;fill-opacity:1;fill-rule:nonzero;stroke:none"
             id="path318"
             inkscape:connector-curvature="0" /></g><g
           id="g320"
           transform="translate(149.6767,114.634)"><path
             d="M 0,0 2.488,4.56 1.866,4.899 -0.622,0.34 Z"
             style="fill:#000000;fill-opacity:1;fill-rule:nonzero;stroke:none"
             id="path322"
             inkscape:connector-curvature="0" /></g><g
           id="g324"
           transform="translate(173.2538,103.217)"><path
             d="m 0,0 -0.5,0.503 -3.698,-3.669 0.499,-0.503 z"
             style="fill:#000000;fill-opacity:1;fill-rule:nonzero;stroke:none"
             id="path326"
             inkscape:connector-curvature="0" /></g><g
           id="g328"
           transform="translate(16.4486,39.3826)"><path
             d="M 0,0 5.222,-0.042 5.228,0.667 0.005,0.709 Z"
             style="fill:#000000;fill-opacity:1;fill-rule:nonzero;stroke:none"
             id="path330"
             inkscape:connector-curvature="0" /></g><g
           id="g332"
           transform="translate(185.6815,76.7385)"><path
             d="M 0,0 10.745,5.312 10.195,6.424 -0.55,1.111 Z"
             style="fill:#000000;fill-opacity:1;fill-rule:nonzero;stroke:none"
             id="path334"
             inkscape:connector-curvature="0" /></g><g
           id="g336"
           transform="translate(181.6864,84.0281)"><path
             d="M 0,0 10.182,6.324 9.527,7.377 -0.655,1.053 Z"
             style="fill:#000000;fill-opacity:1;fill-rule:nonzero;stroke:none"
             id="path338"
             inkscape:connector-curvature="0" /></g><g
           id="g340"
           transform="translate(191.496,61.0808)"><path
             d="M 0,0 11.566,3.149 11.241,4.346 -0.325,1.196 Z"
             style="fill:#000000;fill-opacity:1;fill-rule:nonzero;stroke:none"
             id="path342"
             inkscape:connector-curvature="0" /></g><g
           id="g344"
           transform="translate(194.1689,44.6267)"><path
             d="M 0,0 11.954,0.868 11.864,2.104 -0.09,1.236 Z"
             style="fill:#000000;fill-opacity:1;fill-rule:nonzero;stroke:none"
             id="path346"
             inkscape:connector-curvature="0" /></g><g
           id="g348"
           transform="translate(193.2314,52.9177)"><path
             d="M 0,0 11.814,2.019 11.606,3.24 -0.209,1.223 Z"
             style="fill:#000000;fill-opacity:1;fill-rule:nonzero;stroke:none"
             id="path350"
             inkscape:connector-curvature="0" /></g><g
           id="g352"
           transform="translate(152.3183,113.1125)"><path
             d="M 0,0 6.076,10.332 5.008,10.96 -1.069,0.628 Z"
             style="fill:#000000;fill-opacity:1;fill-rule:nonzero;stroke:none"
             id="path354"
             inkscape:connector-curvature="0" /></g><g
           id="g356"
           transform="translate(144.9599,117.0495)"><path
             d="M 0,0 5.053,10.871 3.928,11.394 -1.124,0.522 Z"
             style="fill:#000000;fill-opacity:1;fill-rule:nonzero;stroke:none"
             id="path358"
             inkscape:connector-curvature="0" /></g><g
           id="g360"
           transform="translate(176.9892,90.9245)"><path
             d="M 0,0 9.523,7.277 8.771,8.263 -0.752,0.985 Z"
             style="fill:#000000;fill-opacity:1;fill-rule:nonzero;stroke:none"
             id="path362"
             inkscape:connector-curvature="0" /></g><g
           id="g364"
           transform="translate(171.6513,97.3367)"><path
             d="M 0,0 8.776,8.162 7.932,9.07 -0.845,0.908 Z"
             style="fill:#000000;fill-opacity:1;fill-rule:nonzero;stroke:none"
             id="path366"
             inkscape:connector-curvature="0" /></g><g
           id="g368"
           transform="translate(159.2607,108.4836)"><path
             d="M 0,0 7.045,9.696 6.041,10.425 -1.004,0.729 Z"
             style="fill:#000000;fill-opacity:1;fill-rule:nonzero;stroke:none"
             id="path370"
             inkscape:connector-curvature="0" /></g><g
           id="g372"
           transform="translate(72.1781,117.571)"><path
             d="M 0,0 -5.051,10.871 -6.176,10.349 -1.125,-0.522 Z"
             style="fill:#000000;fill-opacity:1;fill-rule:nonzero;stroke:none"
             id="path374"
             inkscape:connector-curvature="0" /></g><g
           id="g376"
           transform="translate(64.7655,113.7405)"><path
             d="M 0,0 -6.077,10.332 -7.146,9.704 -1.069,-0.628 Z"
             style="fill:#000000;fill-opacity:1;fill-rule:nonzero;stroke:none"
             id="path378"
             inkscape:connector-curvature="0" /></g><g
           id="g380"
           transform="translate(79.9281,120.6648)"><path
             d="M 0,0 -3.979,11.308 -5.148,10.897 -1.17,-0.412 Z"
             style="fill:#000000;fill-opacity:1;fill-rule:nonzero;stroke:none"
             id="path382"
             inkscape:connector-curvature="0" /></g><g
           id="g384"
           transform="translate(45.2245,98.2639)"><path
             d="M 0,0 -8.776,8.162 -9.62,7.254 -0.844,-0.908 Z"
             style="fill:#000000;fill-opacity:1;fill-rule:nonzero;stroke:none"
             id="path386"
             inkscape:connector-curvature="0" /></g><g
           id="g388"
           transform="translate(39.7802,91.9114)"><path
             d="m 0,0 -9.523,7.277 -0.753,-0.985 9.523,-7.277 z"
             style="fill:#000000;fill-opacity:1;fill-rule:nonzero;stroke:none"
             id="path390"
             inkscape:connector-curvature="0" /></g><g
           id="g392"
           transform="translate(34.9853,85.0837)"><path
             d="M 0,0 -10.182,6.324 -10.836,5.271 -0.654,-1.053 Z"
             style="fill:#000000;fill-opacity:1;fill-rule:nonzero;stroke:none"
             id="path394"
             inkscape:connector-curvature="0" /></g><g
           id="g396"
           transform="translate(30.8715,77.8249)"><path
             d="M 0,0 -10.746,5.312 -11.295,4.201 -0.549,-1.112 Z"
             style="fill:#000000;fill-opacity:1;fill-rule:nonzero;stroke:none"
             id="path398"
             inkscape:connector-curvature="0" /></g><g
           id="g400"
           transform="translate(57.7582,109.2121)"><path
             d="M 0,0 -7.045,9.696 -8.048,8.967 -1.003,-0.729 Z"
             style="fill:#000000;fill-opacity:1;fill-rule:nonzero;stroke:none"
             id="path402"
             inkscape:connector-curvature="0" /></g><g
           id="g404"
           transform="translate(122.829,136.2077)"><path
             d="m 0,0 -1.227,0.179 -1.732,-11.86 1.228,-0.179 z"
             style="fill:#000000;fill-opacity:1;fill-rule:nonzero;stroke:none"
             id="path406"
             inkscape:connector-curvature="0" /></g><g
           id="g408"
           transform="translate(113.3759,137.1775)"><path
             d="m 0,0 -1.238,0.06 -0.579,-11.972 1.238,-0.06 z"
             style="fill:#000000;fill-opacity:1;fill-rule:nonzero;stroke:none"
             id="path410"
             inkscape:connector-curvature="0" /></g><g
           id="g412"
           transform="translate(24.8466,62.2829)"><path
             d="M 0,0 -11.566,3.149 -11.892,1.953 -0.326,-1.196 Z"
             style="fill:#000000;fill-opacity:1;fill-rule:nonzero;stroke:none"
             id="path414"
             inkscape:connector-curvature="0" /></g><g
           id="g416"
           transform="translate(141.2353,131.5657)"><path
             d="m 0,0 -1.17,0.412 -3.979,-11.308 1.17,-0.412 z"
             style="fill:#000000;fill-opacity:1;fill-rule:nonzero;stroke:none"
             id="path418"
             inkscape:connector-curvature="0" /></g><g
           id="g420"
           transform="translate(22.995,54.1472)"><path
             d="M 0,0 -11.816,2.019 -12.025,0.796 -0.209,-1.222 Z"
             style="fill:#000000;fill-opacity:1;fill-rule:nonzero;stroke:none"
             id="path422"
             inkscape:connector-curvature="0" /></g><g
           id="g424"
           transform="translate(21.9359,45.8718)"><path
             d="m 0,0 -11.954,0.868 -0.089,-1.237 11.954,-0.868 z"
             style="fill:#000000;fill-opacity:1;fill-rule:nonzero;stroke:none"
             id="path426"
             inkscape:connector-curvature="0" /></g><g
           id="g428"
           transform="translate(104.4545,125.2659)"><path
             d="M 0,0 -0.579,11.971 -1.817,11.912 -1.239,-0.06 Z"
             style="fill:#000000;fill-opacity:1;fill-rule:nonzero;stroke:none"
             id="path430"
             inkscape:connector-curvature="0" /></g><g
           id="g432"
           transform="translate(96.143,124.5276)"><path
             d="m 0,0 -1.732,11.86 -1.227,-0.179 1.732,-11.86 z"
             style="fill:#000000;fill-opacity:1;fill-rule:nonzero;stroke:none"
             id="path434"
             inkscape:connector-curvature="0" /></g><g
           id="g436"
           transform="translate(189.0829,68.6785)"><path
             d="M 0,0 11.312,4.205 10.602,6.114 -0.71,1.91 Z"
             style="fill:#000000;fill-opacity:1;fill-rule:nonzero;stroke:none"
             id="path438"
             inkscape:connector-curvature="0" /></g><g
           id="g440"
           transform="translate(165.9853,102.9397)"><path
             d="M 0,0 7.936,8.842 6.42,10.203 -1.516,1.36 Z"
             style="fill:#000000;fill-opacity:1;fill-rule:nonzero;stroke:none"
             id="path442"
             inkscape:connector-curvature="0" /></g><g
           id="g444"
           transform="translate(88.3212,123.0749)"><path
             d="M 0,0 -2.863,11.531 -4.84,11.04 -1.977,-0.491 Z"
             style="fill:#000000;fill-opacity:1;fill-rule:nonzero;stroke:none"
             id="path446"
             inkscape:connector-curvature="0" /></g><g
           id="g448"
           transform="translate(51.516,104.2971)"><path
             d="m 0,0 -7.909,8.886 -1.522,-1.354 7.91,-8.886 z"
             style="fill:#000000;fill-opacity:1;fill-rule:nonzero;stroke:none"
             id="path450"
             inkscape:connector-curvature="0" /></g><g
           id="g452"
           transform="translate(27.6156,70.5857)"><path
             d="m 0,0 -11.16,4.229 -0.722,-1.905 11.16,-4.229 z"
             style="fill:#000000;fill-opacity:1;fill-rule:nonzero;stroke:none"
             id="path454"
             inkscape:connector-curvature="0" /></g><g
           id="g456"
           transform="translate(132.494,134.1169)"><path
             d="m 0,0 -1.978,0.49 -2.855,-11.532 1.978,-0.491 z"
             style="fill:#000000;fill-opacity:1;fill-rule:nonzero;stroke:none"
             id="path458"
             inkscape:connector-curvature="0" /></g><g
           id="g460"
           transform="translate(116.956,85.1033)"><path
             d="M 0,0 C 1.582,-0.303 3.136,-0.682 4.656,-1.14 L 9.131,17.014 6.804,17.588 4.476,18.162 Z"
             style="fill:#000000;fill-opacity:1;fill-rule:nonzero;stroke:none"
             id="path462"
             inkscape:connector-curvature="0" /></g><g
           id="g464"
           transform="translate(149.8505,89.6296)"><path
             d="m 0,0 -12.419,-14.017 c 1.247,-1.004 2.443,-2.066 3.579,-3.191 L 3.589,-3.18 1.794,-1.589 Z"
             style="fill:#000000;fill-opacity:1;fill-rule:nonzero;stroke:none"
             id="path466"
             inkscape:connector-curvature="0" /></g><g
           id="g468"
           transform="translate(170.4013,59.8835)"><path
             d="m 0,0 -0.85,2.242 -0.849,2.241 -17.624,-6.682 c 0.631,-1.462 1.192,-2.96 1.674,-4.494 z"
             style="fill:#000000;fill-opacity:1;fill-rule:nonzero;stroke:none"
             id="path470"
             inkscape:connector-curvature="0" /></g><g
           id="g472"
           transform="translate(89.9135,102.1169)"><path
             d="m 0,0 4.474,-18.153 c 1.521,0.457 3.075,0.837 4.657,1.139 L 4.655,1.148 2.327,0.574 Z"
             style="fill:#000000;fill-opacity:1;fill-rule:nonzero;stroke:none"
             id="path474"
             inkscape:connector-curvature="0" /></g><g
           id="g476"
           transform="translate(64.3554,88.0403)"><path
             d="m 0,0 -1.794,-1.59 12.428,-14.028 c 1.136,1.124 2.332,2.186 3.578,3.19 L 1.794,1.589 Z"
             style="fill:#000000;fill-opacity:1;fill-rule:nonzero;stroke:none"
             id="path478"
             inkscape:connector-curvature="0" /></g><g
           id="g480"
           transform="translate(47.2978,64.3669)"><path
             d="m 0,0 -0.85,-2.241 -0.849,-2.242 17.65,-6.694 c 0.481,1.534 1.043,3.032 1.673,4.494 z"
             style="fill:#000000;fill-opacity:1;fill-rule:nonzero;stroke:none"
             id="path482"
             inkscape:connector-curvature="0" /></g><g
           id="g484"
           transform="translate(28.0273,39.487)"><path
             d="m 0,0 h 6.731 c 0.314,40.083 33.015,72.596 73.17,72.596 40.157,0 72.857,-32.513 73.17,-72.596 h 6.732 C 159.489,43.795 123.77,79.328 79.901,79.328 36.034,79.328 0.314,43.795 0,0"
             style="fill:#000000;fill-opacity:1;fill-rule:nonzero;stroke:none"
             id="path486"
             inkscape:connector-curvature="0" /></g><g
           id="g488"
           transform="translate(108.0077,36.3826)"><path
             d="m 0,0 c -1.443,0 -2.612,1.17 -2.612,2.612 0,1.444 1.169,2.613 2.612,2.613 1.443,0 2.612,-1.169 2.612,-2.613 C 2.612,1.17 1.443,0 0,0 m 54.674,38.343 -0.184,0.665 c -0.134,0.485 -0.426,0.913 -0.829,1.214 l -0.553,0.412 c -0.302,0.226 -0.712,0.238 -1.028,0.032 L 3.828,9.064 C 1.363,10.542 -1.65,10.448 -3.978,9.012 L -35.449,29.81 h -0.001 c -0.327,0.211 -0.745,0.203 -1.005,0.046 l -1.265,-0.76 c -0.337,-0.202 -0.555,-0.522 -0.621,-0.909 l -0.249,-1.456 c -0.051,-0.298 0.062,-0.736 0.378,-0.963 L -38.211,25.767 -7.445,3.816 C -7.561,3.094 -7.567,2.362 -7.473,1.646 l -4.557,-2.994 c -0.332,-0.217 -0.481,-0.629 -0.366,-1.009 l 0.639,-2.102 c 0.148,-0.486 0.442,-0.916 0.841,-1.23 l 1.726,-1.359 c 0.312,-0.246 0.749,-0.257 1.073,-0.027 l 4.425,3.142 c 2.29,-1.283 5.017,-1.245 7.223,-0.06 L 7.98,-7.159 c 0.325,-0.231 0.761,-0.22 1.074,0.026 l 1.726,1.358 c 0.401,0.314 0.695,0.743 0.842,1.229 l 0.641,2.102 c 0.116,0.38 -0.033,0.791 -0.365,1.009 L 7.404,1.522 C 7.522,2.324 7.505,3.136 7.365,3.925 l 46.964,33.449 c 0.307,0.218 0.445,0.605 0.345,0.969"
             style="fill:#000000;fill-opacity:1;fill-rule:nonzero;stroke:none"
             id="path490"
             inkscape:connector-curvature="0" /></g></g></g></g></svg>