<?xml version="1.0" encoding="utf-8"?>
<!-- Generator: Adobe Illustrator 22.1.0, SVG Export Plug-In . SVG Version: 6.00 Build 0)  -->
<svg version="1.1" id="Layer_1" xmlns="http://www.w3.org/2000/svg" xmlns:xlink="http://www.w3.org/1999/xlink" x="0px" y="0px"
	 viewBox="0 0 576 216" style="enable-background:new 0 0 576 216;" xml:space="preserve">
<g>
	<g>
		<polygon points="111.1,73.6 90.2,116.1 111.1,116.1 131.7,73.6 		"/>
		<polygon points="84,73.6 49,145 69.8,145 104.5,73.6 		"/>
		<g>
			<path d="M534,108h-7.6V81.8h7.6c8.5,0,13,5.7,13,13C547,102,542.2,108,534,108 M534,115.8c13,0,22.1-8.3,22.1-20.9
				C556.1,82.3,547,74,534,74h-16.5v41.8H534z M509.8,115.8V74h-8.9v26.2L481.6,74h-9.1v41.8h8.9V88.5l19.9,27.3H509.8z
				 M452.1,100.9h-13l6.5-18L452.1,100.9z M467.3,115.8L451.2,74H440l-16.1,41.8H434l2.6-7.1h17.9l2.6,7.1H467.3z M419.8,115.8V108
				h-17.7V74h-9v41.8H419.8z M371.2,93.1h-9.4V81.8h9.4c3.5,0,6.2,2.1,6.2,5.6C377.4,91,374.7,93.1,371.2,93.1 M386.8,115.8
				l-9.5-15.9c4.5-1.1,9.2-5.1,9.2-12.4c0-7.8-5.4-13.5-14.1-13.5h-19.5v41.8h8.9v-14.8h6.5l8.2,14.8H386.8z M345.3,115.8V108h-20.7
				v-9.5h20.2v-7.8h-20.2v-8.8h20.7V74h-29.6v41.8H345.3z M298.4,115.8L310.3,74h-10l-7.3,30.2L285.1,74h-7l-8,30.2L262.9,74h-10
				l12,41.8h9.5l7.3-28.7l7.3,28.7H298.4z M230.1,108.7c-7.8,0-12.7-6-12.7-13.7c0-7.8,5-13.7,12.7-13.7c7.7,0,12.7,5.9,12.7,13.7
				C242.8,102.7,237.9,108.7,230.1,108.7 M230.1,116.5c12.6,0,21.8-9,21.8-21.6c0-12.6-9.2-21.6-21.8-21.6c-12.7,0-21.9,9-21.9,21.6
				C208.3,107.5,217.5,116.5,230.1,116.5 M189.4,93.1H180V81.8h9.4c3.5,0,6.2,2.1,6.2,5.6C195.6,90.9,192.9,93.1,189.4,93.1
				 M180,115.8v-14.9h10.7c9,0,14-6.1,14-13.4c0-7.3-4.9-13.5-14-13.5h-19.5v41.8H180z"/>
			<polygon points="57.1,73.6 22.1,145 42.9,145 77.6,73.6 			"/>
		</g>
	</g>
</g>
</svg>
